# AST/ASF file generated using VICON BodyLanguage
# -----------------------------------------------
:version 1.10
:name VICON
:units
  mass 1.0
  length 0.45
  angle deg
:documentation
   .ast/.asf automatically generated from VICON data using
   VICON BodyBuilder and BodyLanguage model FoxedUp or BRILLIANT.MOD
:root
   order TX TY TZ RX RY RZ
   axis XYZ
   position 0 0 0  
   orientation 0 -0 0 
:bonedata
  begin
     id 1 
     name lhipjoint
     direction 0.515797 -0.759363 0.396637 
     length 2.47888 
     axis 0 -0 0  XYZ
  end
  begin
     id 2 
     name lfemur
     direction 0.34202 -0.939693 0  
     length 6.81885  
     axis 0 -0 20  XYZ
    dof rx ry rz
    limits (-160.0 20.0)
           (-70.0 70.0)
           (-60.0 70.0)
  end
  begin
     id 3 
     name ltibia
     direction 0.342037 -0.939687 0   
     length 7.89258   
     axis 0 -0 20   XYZ
    dof rx
    limits (-10.0 170.0)
  end
  begin
     id 4 
     name lfoot
     direction 0.173497 -0.476678 0.861787   
     length 2.51543   
     axis -90 -1.13533e-015 20   XYZ
    dof rx rz
    limits (-45.0 90.0)
           (-70.0 20.0)
  end
  begin
     id 5 
     name ltoes
     direction 1.53564e-011 -4.21897e-011 1   
     length 1.21388   
     axis -90 -1.13533e-015 20   XYZ
    dof rx
    limits (-90.0 20.0)
  end
  begin
     id 6 
     name rhipjoint
     direction -0.489454 -0.772941 0.403729   
     length 2.43534  
     axis 0 -0 0  XYZ 
  end
  begin
     id 7 
     name rfemur
     direction -0.34202 -0.939693 0   
     length 7.10357   
     axis 0 -0 -20   XYZ
    dof rx ry rz
    limits (-160.0 20.0)
           (-70.0 70.0)
           (-70.0 60.0)
  end
  begin
     id 8 
     name rtibia
     direction -0.34202 -0.939693 0   
     length 9.16127   
     axis 0 -0 -20   XYZ
    dof rx
    limits (-10.0 170.0)
 end
 begin
     id 9 
     name rfoot
     direction -0.270974 -0.748671 0.605033   
     length 1.74894  
     axis -90 1.13533e-015 -20   XYZ
    dof rx rz
    limits (-45.0 90.0)
           (-20.0 70.0)
  end
  begin
     id 10 
     name rtoes
     direction -1.53557e-011 -4.21759e-011 1   
     length 0.787585   
     axis -90 1.13533e-015 -20   XYZ
    dof rx
    limits (-90.0 20.0)
  end
  begin
     id 11 
     name lowerback
     direction -0.0140249 0.999561 0.0260968   
     length 2.16963   
     axis 0 -0 0   XYZ
    dof rx ry rz
    limits (-20.0 45.0)
           (-30.0 30.0)
           (-30.0 30.0)
  end
  begin
     id 12 
     name upperback
     direction 0.00860018 0.999959 -0.002711   
     length 2.1726   
     axis 0 -0 0   XYZ
    dof rx ry rz
    limits (-20.0 45.0)
           (-30.0 30.0)
           (-30.0 30.0)
  end
  begin
     id 13 
     name thorax
     direction 0.015211 0.999782 -0.0143191   
     length 2.17061   
     axis 0 -0 0   XYZ
    dof rx ry rz
    limits (-20.0 45.0)
           (-30.0 30.0)
           (-30.0 30.0)
  end
  begin
     id 14 
     name lowerneck
     direction -0.0140143 0.999447 0.030145   
     length 2.26749   
     axis 0 -0 0   XYZ
    dof rx ry rz
    limits (-20.0 45.0)
           (-30.0 30.0)
           (-30.0 30.0)
  end
  begin
     id 15 
     name upperneck
     direction 0.118062 0.961438 -0.248392   
     length 2.22728   
     axis 0 -0 0   XYZ
    dof rx ry rz
    limits (-20.0 45.0)
           (-30.0 30.0)
           (-30.0 30.0)
  end
  begin
     id 16
     name head
     direction 0.0431885 0.9954 -0.085514  
     length 2.28786  
     axis 0 -0 0   XYZ
    dof rx ry rz
    limits (-20.0 45.0)
           (-30.0 30.0)
           (-30.0 30.0)
  end
  begin
     id 17 
     name lclavicle
     direction 0.912126 0.409548 0.0172323  
     length 4.31571  
     axis 0 -0 0   XYZ
    dof ry rz
    limits (-20.0 10.0)
           (0.0 20.0)
  end
  begin
     id 18 
     name lhumerus
     direction 1 -4.48977e-011 1.93091e-027   
     length 5.13658   
     axis 180 -30 -90   XYZ
    dof rx ry rz
    limits (-60.0 90.0)
           (-90.0 90.0)
           (-90.0 90.0)
  end
  begin
     id 19
     name lradius
     direction 1 -4.48916e-011 6.84018e-027   
     length 3.22473   
     axis 180 -30 -90   XYZ
    dof rx
    limits (-10.0 170.0)
  end
  begin
     id 20
     name lwrist
     direction 1 -4.48987e-011 7.01981e-027   
     length 1.61236   
     axis -4.37994e-015 90 90   XYZ
    dof ry
    limits (-180.0 0.0)
 end
  begin
     id 21 
     name lhand
     direction 1 -4.49037e-011 1.40335e-026   
     length 0.936406   
     axis -8.96029e-015 90 90   XYZ
    dof rx rz
    limits (-90.0 90.0)
           (-45.0 45.0)
  end
  begin
     id 22 
     name lfingers
     direction 1 -4.48886e-011 2.8104e-026   
     length 0.754955   
     axis -1.79203e-014 90 90   XYZ
    dof rx
    limits (0.0 90.0)
  end
  begin
     id 23
     name lthumb
     direction 0.707107 -6.34937e-011 0.707107   
     length 1.08397   
     axis -90 45 -4.48555e-014   XYZ
    dof rx rz
    limits (-45.0 45.0)
           (-45.0 45.0)
  end
  begin
     id 24 
     name rclavicle
     direction -0.947962 0.317997 0.0156638   
     length 4.86918  
     axis 0 -0 0   XYZ 
    dof ry rz
    limits (-10.0 20.0)
           (-20.0 0.0)
  end
  begin
     id 25 
     name rhumerus
     direction -1 -4.48951e-011 2.80534e-018  
     length 5.60911   
     axis 180 30 90   XYZ
    dof rx ry rz
    limits (-90.0 60.0)
           (-90.0 90.0)
           (-90.0 90.0)
  end
  begin
     id 26 
     name rradius
     direction -1 -4.4898e-011 2.11315e-027   
     length 3.38704   
     axis 180 30 90   XYZ
    dof rx
    limits (-10.0 170.0)
  end
  begin
     id 27 
     name rwrist
     direction -1 -4.48933e-011 7.02314e-027   
     length 1.69352   
     axis -4.37994e-015 -90 -90   XYZ
    dof ry
    limits (-180.0 0.0)
  end
  begin
     id 28
     name rhand
     direction -1 -4.48937e-011 1.40458e-026   
     length 0.755878   
     axis -8.96029e-015 -90 -90   XYZ
    dof rx rz
    limits (-90.0 90.0)
           (-45.0 45.0)
  end
  begin
     id 29
     name rfingers
     direction -1 -4.4901e-011 2.80737e-026   
     length 0.609409   
     axis -1.79203e-014 -90 -90   XYZ
    dof rx
    limits (0.0 90.0)
  end
  begin
     id 30
     name rthumb
     direction -0.707107 -6.34968e-011 0.707107   
     length 0.874992   
     axis -90 -45 4.48555e-014   XYZ
    dof rx rz
    limits (-45.0 45.0)
           (-45.0 45.0)
  end
:hierarchy
  begin
    root lhipjoint rhipjoint lowerback
    lhipjoint lfemur
    lfemur ltibia
    ltibia lfoot
    lfoot ltoes
    rhipjoint rfemur
    rfemur rtibia
    rtibia rfoot
    rfoot rtoes
    lowerback upperback
    upperback thorax
    thorax lowerneck lclavicle rclavicle
    lowerneck upperneck
    upperneck head
    lclavicle lhumerus
    lhumerus lradius
    lradius lwrist
    lwrist lhand lthumb
    lhand lfingers
    rclavicle rhumerus
    rhumerus rradius
    rradius rwrist
    rwrist rhand rthumb
    rhand rfingers
  end

#!OML:ASF C:\ViconDB\ViconDB\414\Spring2016\041811\Spring2016.ASF
:FULLY-SPECIFIED
:DEGREES
1
root 8.54854 18.2223 -9.73008 -175.615 -10.2594 178.536
lowerback -1.47981 9.78682 -1.20624
upperback -0.507887 13.0585 -1.0011
thorax 0.258633 6.52344 -0.158143
lowerneck -17.3967 -2.40839 -13.0255
upperneck 26.8042 -5.40133 16.1974
head 12.5539 -2.1631 7.66317
rclavicle -1.32052e-013 6.06293e-015
rhumerus -3.61576 -2.39898 -33.9953
rradius 43.846
rwrist 35.6865
rhand -35.765 -8.68865
rfingers 7.12502
rthumb -8.88305 -38.4817
lclavicle -1.32052e-013 6.06293e-015
lhumerus -44.0208 8.89325 11.7198
lradius 31.3208
lwrist -13.0441
lhand -31.867 20.3256
lfingers 7.12502
lthumb -5.12031 50.2437
rfemur 134.547 50.9362 152.625
rtibia -3.73715e-014
rfoot -76.9822 -48.3284
rtoes -43.2891
lfemur -32.9561 -18.7595 -18.5246
ltibia 41.2105
lfoot -12.4452 -24.1632
ltoes -5.63213
2
root 8.5467 18.2218 -9.73334 -175.505 -10.247 178.685
lowerback -1.59365 9.85204 -1.05172
upperback -0.539024 13.1451 -0.969516
thorax 0.315359 6.56676 -0.184304
lowerneck -17.4393 -2.44602 -12.9789
upperneck 26.773 -5.45788 16.1945
head 12.5606 -2.18024 7.64309
rclavicle 1.16892e-013 -1.39149e-015
rhumerus -3.49418 -2.77512 -33.9916
rradius 43.6956
rwrist 35.8797
rhand -35.5656 -8.75509
rfingers 7.12502
rthumb -8.69057 -38.5562
lclavicle 1.16892e-013 -1.39149e-015
lhumerus -43.9425 9.14476 11.6024
lradius 31.1536
lwrist -13.0965
lhand -31.6774 20.1796
lfingers 7.12502
lthumb -4.93728 50.1021
rfemur 134.71 51.0232 152.91
rtibia 1.74931e-014
rfoot -76.8974 -48.3494
rtoes -43.2589
lfemur -33.1557 -18.4552 -18.3707
ltibia 41.3237
lfoot -12.4645 -24.406
ltoes -5.62928
3
root 8.54503 18.2211 -9.7352 -175.446 -10.1645 178.724
lowerback -1.62456 9.94238 -1.0308
upperback -0.545139 13.2658 -0.934778
thorax 0.322114 6.62725 -0.153941
lowerneck -17.5192 -2.49709 -13.0417
upperneck 26.801 -5.51161 16.217
head 12.6024 -2.20446 7.65981
rclavicle 2.39784e-013 -1.07344e-014
rhumerus -3.43566 -2.83748 -33.8327
rradius 43.6586
rwrist 35.4844
rhand -35.3732 -8.8895
rfingers 7.12502
rthumb -8.50493 -38.6982
lclavicle 2.39784e-013 -1.07344e-014
lhumerus -43.9606 9.38562 11.5969
lradius 31.098
lwrist -13.1633
lhand -31.5106 19.9856
lfingers 7.12502
lthumb -4.77615 49.9117
rfemur 134.873 51.0133 153.075
rtibia 4.45278e-014
rfoot -76.8496 -48.3724
rtoes -43.3265
lfemur -33.2301 -18.2604 -18.3358
ltibia 41.3703
lfoot -12.5957 -24.5006
ltoes -5.6873
4
root 8.54566 18.2225 -9.73848 -175.363 -10.1168 178.768
lowerback -1.71024 10.0058 -1.01116
upperback -0.543276 13.3515 -0.909376
thorax 0.36912 6.66988 -0.120931
lowerneck -17.5311 -2.51677 -12.9778
upperneck 26.7468 -5.52512 16.1556
head 12.5822 -2.20645 7.61627
rclavicle -1.09829e-013 6.4605e-015
rhumerus -3.37652 -3.27864 -33.7771
rradius 43.536
rwrist 35.5805
rhand -35.361 -8.91703
rfingers 7.12502
rthumb -8.4932 -38.7262
lclavicle -1.09829e-013 6.4605e-015
lhumerus -43.9713 9.44642 11.6502
lradius 31.0819
lwrist -13.2322
lhand -31.3718 19.9991
lfingers 7.12502
lthumb -4.6422 49.9283
rfemur 135.031 51.0522 153.249
rtibia -3.97569e-014
rfoot -76.6516 -48.4031
rtoes -43.3792
lfemur -33.3361 -18.02 -18.2914
ltibia 41.4248
lfoot -12.5339 -24.6245
ltoes -5.58967
